<?xml version="1.0" encoding="utf-8"?>
<!-- Generator: Adobe Illustrator 22.1.0, SVG Export Plug-In . SVG Version: 6.00 Build 0)  -->
<svg version="1.1" id="Capa_1" xmlns="http://www.w3.org/2000/svg" xmlns:xlink="http://www.w3.org/1999/xlink" x="0px" y="0px"
	 viewBox="0 0 50 50" style="enable-background:new 0 0 50 50;" xml:space="preserve">
<style type="text/css">
	.st0{display:none;}
	.st1{display:inline;fill:#35434A;}
	.st2{fill:#9DA7D1;}
	.st3{filter:url(#Adobe_OpacityMaskFilter);}
	.st4{fill:#FFFFFF;}
	.st5{display:none;mask:url(#SVGID_1_);fill:#F0C419;}
	.st6{filter:url(#Adobe_OpacityMaskFilter_1_);}
	.st7{display:none;mask:url(#SVGID_2_);fill:#F0C419;}
	.st8{filter:url(#Adobe_OpacityMaskFilter_2_);}
	.st9{display:none;mask:url(#SVGID_3_);fill:#F0C419;}
	.st10{display:none;fill:#F0C419;}
	.st11{filter:url(#Adobe_OpacityMaskFilter_3_);}
	.st12{display:none;mask:url(#SVGID_4_);fill:#F0C419;}
	.st13{filter:url(#Adobe_OpacityMaskFilter_4_);}
	.st14{display:none;mask:url(#SVGID_5_);fill:#F0C419;}
	.st15{display:none;fill:#35434A;}
	.st16{fill:#546E78;}
	.st17{fill:#CCCCCC;}
</style>
<g class="st0">
	<rect class="st1" width="50" height="50"/>
</g>
<g>
	<rect class="st2" width="50" height="50"/>
</g>
<g class="st0">
	<rect class="st1" width="50" height="50"/>
</g>
<defs>
	<filter id="Adobe_OpacityMaskFilter" filterUnits="userSpaceOnUse" x="8" y="7.2" width="34.8" height="34.8">
		<feColorMatrix  type="matrix" values="1 0 0 0 0  0 1 0 0 0  0 0 1 0 0  0 0 0 1 0"/>
	</filter>
</defs>
<mask maskUnits="userSpaceOnUse" x="8" y="7.2" width="34.8" height="34.8" id="SVGID_1_">
	<g class="st3">
		<polygon class="st4" points="12.1,9.3 25.4,20.4 35.5,7.1 48.8,20.3 37.7,44.7 10.2,46.9 5.1,33.7 5.1,20.5 		"/>
		<circle class="st4" cx="16.7" cy="26" r="3.2"/>
	</g>
</mask>
<circle class="st5" cx="25.4" cy="24.6" r="17.4"/>
<defs>
	<filter id="Adobe_OpacityMaskFilter_1_" filterUnits="userSpaceOnUse" x="8" y="7.2" width="34.8" height="34.8">
		<feColorMatrix  type="matrix" values="1 0 0 0 0  0 1 0 0 0  0 0 1 0 0  0 0 0 1 0"/>
	</filter>
</defs>
<mask maskUnits="userSpaceOnUse" x="8" y="7.2" width="34.8" height="34.8" id="SVGID_2_">
	<g class="st6">
		<polygon class="st4" points="12.1,9.3 25.4,20.4 35.5,7.1 48.8,20.3 37.7,44.7 10.2,46.9 5.1,33.7 5.1,20.5 		"/>
		<circle class="st4" cx="16.7" cy="26" r="3.2"/>
	</g>
</mask>
<circle class="st7" cx="25.4" cy="24.6" r="17.4"/>
<defs>
	<filter id="Adobe_OpacityMaskFilter_2_" filterUnits="userSpaceOnUse" x="8" y="7.2" width="34.8" height="34.8">
		<feColorMatrix  type="matrix" values="1 0 0 0 0  0 1 0 0 0  0 0 1 0 0  0 0 0 1 0"/>
	</filter>
</defs>
<mask maskUnits="userSpaceOnUse" x="8" y="7.2" width="34.8" height="34.8" id="SVGID_3_">
	<g class="st8">
		<polygon class="st4" points="9.9,37.7 21.2,24.5 8,14.3 21.3,1.2 45.6,12.5 47.5,39.9 34.3,44.9 21.1,44.9 		"/>
		<circle class="st4" cx="26.7" cy="33.3" r="3.2"/>
	</g>
</mask>
<circle class="st9" cx="25.4" cy="24.6" r="17.4"/>
<circle class="st10" cx="25.5" cy="24.5" r="17.5"/>
<defs>
	<filter id="Adobe_OpacityMaskFilter_3_" filterUnits="userSpaceOnUse" x="8" y="7.2" width="34.8" height="34.8">
		<feColorMatrix  type="matrix" values="1 0 0 0 0  0 1 0 0 0  0 0 1 0 0  0 0 0 1 0"/>
	</filter>
</defs>
<mask maskUnits="userSpaceOnUse" x="8" y="7.2" width="34.8" height="34.8" id="SVGID_4_">
	<g class="st11">
		<polygon class="st4" points="38.3,40.2 25.3,28.8 14.9,41.8 1.9,28.4 13.5,4.2 40.9,2.6 45.8,15.9 45.6,29.1 		"/>
		<circle class="st4" cx="34.1" cy="23.3" r="3.2"/>
	</g>
</mask>
<circle class="st12" cx="25.4" cy="24.6" r="17.4"/>
<defs>
	<filter id="Adobe_OpacityMaskFilter_4_" filterUnits="userSpaceOnUse" x="8" y="7.2" width="34.8" height="34.8">
		<feColorMatrix  type="matrix" values="1 0 0 0 0  0 1 0 0 0  0 0 1 0 0  0 0 0 1 0"/>
	</filter>
</defs>
<mask maskUnits="userSpaceOnUse" x="8" y="7.2" width="34.8" height="34.8" id="SVGID_5_">
	<g class="st13">
		<polygon class="st4" points="40.7,11.4 29.6,24.6 42.8,34.7 29.6,48 5.2,36.8 3.1,9.4 16.3,4.3 29.5,4.3 		"/>
		<circle class="st4" cx="24" cy="15.9" r="3.2"/>
	</g>
</mask>
<circle class="st14" cx="25.4" cy="24.6" r="17.4"/>
<circle class="st15" cx="34" cy="23" r="2"/>
<circle class="st15" cx="17" cy="23" r="2"/>
<circle class="st15" cx="21" cy="16" r="2"/>
<circle class="st15" cx="27" cy="15" r="2"/>
<circle class="st10" cx="25.5" cy="25.5" r="6.5"/>
<g>
	<rect x="0.5" y="0.5" class="st16" width="49" height="49"/>
	<path class="st17" d="M49,1v48H1V1H49 M50,0H0v50h50V0L50,0z"/>
</g>
</svg>
